<?xml version="1.0" encoding="UTF-8"?>
<svg id="Layer_1" xmlns="http://www.w3.org/2000/svg" version="1.1" viewBox="0 0 100 100">
  <!-- Generator: Adobe Illustrator 29.8.4, SVG Export Plug-In . SVG Version: 2.1.1 Build 6)  -->
  <defs>
    <style>
      .st0 {
        fill: #fff;
      }
    </style>
  </defs>
  <path class="st0" d="M75.07,39.37v-11.8c0-13.82-11.23-25.07-25.07-25.07s-25.07,11.25-25.07,25.07v11.8c-5.78.48-10.33,5.37-10.33,11.27v14.07c0,18.08,14.7,32.8,32.78,32.8h5.23c18.08,0,32.78-14.72,32.78-32.8v-14.07c0-5.9-4.55-10.78-10.33-11.27h0ZM35.78,27.57c.78-18.84,27.65-18.83,28.43,0v11.75h-28.43v-11.75ZM46.03,69.72c-5.85-3.82-3-13.15,3.97-13.08,6.96-.06,9.82,9.26,3.97,13.08-.45.3-.73.83-.73,1.38v5.85c-.11,4.26-6.35,4.27-6.47,0v-5.85c0-.55-.28-1.08-.73-1.38h0Z"/>
</svg>