<svg id="Layer_1" height="512" viewBox="0 0 32 32" width="512" xmlns="http://www.w3.org/2000/svg" data-name="Layer 1"><path d="m24.069 21.856c2.408-2.196 3.931-5.348 3.931-8.856 0-6.617-5.383-12-12-12s-12 5.383-12 12c0 3.508 1.523 6.66 3.931 8.856l-2.286 4.897c-.236.5-.178 1.085.151 1.528.331.445.879.669 1.434.587l1.982-.3 1.036 1.698c.268.456.755.732 1.283.732.022 0 .045 0 .068-.002.56-.025 1.056-.354 1.297-.864l2.409-5.167c.231.013.46.035.694.035s.463-.022.694-.035l2.412 5.173c.239.504.735.833 1.295.858.022 0 .045.002.068.002.528 0 1.015-.276 1.275-.718l1.043-1.712 1.984.3c.549.086 1.101-.142 1.432-.587.329-.443.387-1.028.153-1.524l-2.288-4.901zm-12.591 6.586-.904-1.483c-.21-.344-.605-.527-1.004-.468l-1.717.26 1.702-3.646c1.116.715 2.357 1.247 3.683 1.561l-1.761 3.776zm-5.478-15.442c0-5.514 4.486-10 10-10s10 4.486 10 10-4.486 10-10 10-10-4.486-10-10zm16.43 13.491c-.396-.059-.794.124-1.004.468l-.904 1.483-1.761-3.776c1.326-.314 2.567-.846 3.683-1.561l1.702 3.646-1.717-.26z"/><path d="m20.666 9.861-1.897-.56-1.119-1.632c-.373-.544-.99-.87-1.65-.87s-1.277.325-1.649.869l-1.119 1.632-1.897.56c-.633.187-1.133.673-1.337 1.3-.204.628-.085 1.315.317 1.837l1.207 1.568-.055 1.978c-.018.66.29 1.285.824 1.673.533.388 1.223.486 1.845.267l1.864-.663 1.864.663c.218.078.445.116.67.115.417 0 .829-.13 1.175-.382.534-.388.842-1.013.824-1.673l-.055-1.978 1.207-1.568c.402-.523.521-1.21.317-1.838-.204-.627-.704-1.114-1.337-1.3zm-1.989 3.768c-.14.183-.213.408-.207.638l.064 2.333-2.199-.782c-.217-.077-.453-.077-.67 0l-2.2.783.064-2.333c.006-.23-.067-.455-.207-.638l-1.423-1.85 2.239-.66c.221-.065.412-.204.542-.394l1.32-1.925 1.32 1.925c.13.189.321.329.542.394l2.239.66-1.423 1.85z"/></svg>